{"title":"THE.THING.from.Another.World!.1951.HQ.720p.x264.AC3.[FrOnkY]","uid":11951291,"size":3300721481,"categoryP":"video","categoryS":"hd___movies","magnet":"?xt=urn:btih:33b615bc2fbdae0d96b39cf36848ae19f7c92764&amp;dn=THE.THING.from.Another.World%21.1951.HQ.720p.x264.AC3.%5BFrOnkY%5D&amp;tr=udp%3A%2F%2Ftracker.openbittorrent.com%3A80&amp;tr=udp%3A%2F%2Fopen.demonii.com%3A1337&amp;tr=udp%3A%2F%2Ftracker.coppersurfer.tk%3A6969&amp;tr=udp%3A%2F%2Fexodus.desync.com%3A6969","seeders":2,"leechers":2,"uploader":"HDmEntEs","files":1,"time":1432159858,"description":"THE.THING.from.Another.World!.1951.HQ.720p.x264.AC3.[FrOnkY].mkv\n\n\nFormat                                   : Matroska\nFormat version                           : Version 4 / Version 2\nFile size                                : 3.07 GiB\nDuration                                 : 1h 26mn\nOverall bit rate                         : 5 079 Kbps\nWriting application                      : mkvmerge v6.9.1 ('Blue Panther') 32bit\nWriting library                          : libebml v1.3.0 + libmatroska v1.4.1\nAttachements                             : TheThingFromAnotherWorld!.jpg\n\nVideo\nID                                       : 1\nFormat                                   : AVC\nFormat/Info                              : Advanced Video Codec\nFormat profile                           : High L4.1\nFormat settings, CABAC                   : Yes\nFormat settings, ReFrames                : 11 frames\nCodec ID                                 : V_MPEG4/ISO/AVC\nDuration                                 : 1h 26mn\nBit rate                                 : 4 884 Kbps\nWidth                                    : 968 pixels\nHeight                                   : 720 pixels\nDisplay aspect ratio                     : 4:3\nFrame rate mode                          : Constant\nFrame rate                               : 23.976 fps\nColor space                              : YUV\nChroma subsampling                       : 4:2:0\nBit depth                                : 8 bits\nScan type                                : Progressive\nBits/(Pixel*Frame)                       : 0.292\nStream size                              : 2.90 GiB (94%)\nWriting library                          : x264 core 142 r2491 24e4fed\nLanguage                                 : English\nDefault                                  : Yes\nForced                                   : No\n\nAudio\nID                                       : 2\nFormat                                   : AC-3\nFormat/Info                              : Audio Coding 3\nMode extension                           : CM (complete main)\nFormat settings, Endianness              : Big\nCodec ID                                 : A_AC3\nDuration                                 : 1h 26mn\nBit rate mode                            : Constant\nBit rate                                 : 192 Kbps\nChannel(s)                               : 2 channels\nChannel positions                        : Front: L R\nSampling rate                            : 48.0 KHz\nBit depth                                : 16 bits\nStream size                              : 119 MiB (4%)\nLanguage                                 : English\nDefault                                  : Yes\nForced                                   : No\n\nText #1\nID                                       : 3\nFormat                                   : UTF-8\nCodec ID                                 : S_TEXT/UTF8\nCodec ID/Info                            : UTF-8 Plain Text\nLanguage                                 : Spanish\nDefault                                  : Yes\nForced                                   : No\n\nText #2\nID                                       : 4\nFormat                                   : UTF-8\nCodec ID                                 : S_TEXT/UTF8\nCodec ID/Info                            : UTF-8 Plain Text\nLanguage                                 : Spanish\nDefault                                  : No\nForced                                   : No\n\nText #3\nID                                       : 5\nFormat                                   : UTF-8\nCodec ID                                 : S_TEXT/UTF8\nCodec ID/Info                            : UTF-8 Plain Text\nLanguage                                 : English\nDefault                                  : No\nForced                                   : No\n\nText #4\nID                                       : 6\nFormat                                   : UTF-8\nCodec ID                                 : S_TEXT/UTF8\nCodec ID/Info                            : UTF-8 Plain Text\nLanguage                                 : French\nDefault                                  : No\nForced                                   : No\n\nText #5\nID                                       : 7\nFormat                                   : UTF-8\nCodec ID                                 : S_TEXT/UTF8\nCodec ID/Info                            : UTF-8 Plain Text\nLanguage                                 : Portuguese\nDefault                                  : No\nForced                                   : No\n\nMenu\n00:00:00.000                             : en:Chapter 01\n00:01:23.555                             : en:Chapter 02\n00:09:12.111                             : en:Chapter 03\n00:12:14.222                             : en:Chapter 04\n00:18:39.999                             : en:Chapter 05\n00:21:56.888                             : en:Chapter 06\n00:32:04.444                             : en:Chapter 07\n00:35:22.333                             : en:Chapter 08\n00:41:08.000                             : en:Chapter 09\n00:48:55.222                             : en:Chapter 10\n00:58:15.666                             : en:Chapter 11\n01:04:02.777                             : en:Chapter 12\n01:11:15.333                             : en:Chapter 13\n01:15:42.999                             : en:Chapter 14\n01:23:09.111                             : en:Chapter 15\n\n\nSD - HQ\n &lt;a href=&quot;\nhttp://i.imgur.com/ckiQNPV.png&quot; rel=&quot;nofollow&quot; target=&quot;_NEW&quot;&gt;\nhttp://i.imgur.com/ckiQNPV.png&lt;/a&gt; &lt;a href=&quot;\nhttp://i.imgur.com/ArcdM3J.png&quot; rel=&quot;nofollow&quot; target=&quot;_NEW&quot;&gt;\nhttp://i.imgur.com/ArcdM3J.png&lt;/a&gt;","torrent":{"xt":"urn:btih:33b615bc2fbdae0d96b39cf36848ae19f7c92764","amp;dn":"THE.THING.from.Another.World%21.1951.HQ.720p.x264.AC3.%5BFrOnkY%5D","amp;tr":["udp%3A%2F%2Ftracker.openbittorrent.com%3A80","udp%3A%2F%2Fopen.demonii.com%3A1337","udp%3A%2F%2Ftracker.coppersurfer.tk%3A6969","udp%3A%2F%2Fexodus.desync.com%3A6969"],"infoHash":"33b615bc2fbdae0d96b39cf36848ae19f7c92764","infoHashBuffer":{"type":"Buffer","data":[51,182,21,188,47,189,174,13,150,179,156,243,104,72,174,25,247,201,39,100]},"announce":[],"urlList":[]}}